<svg width="62" height="62" viewBox="0 0 62 62" fill="none" xmlns="http://www.w3.org/2000/svg">
<path fill-rule="evenodd" clip-rule="evenodd" d="M42.0972 43.9155C37.8614 47.9678 31.571 48.4509 25.989 47.8717C21.134 47.3686 14.548 45.8302 12.9625 40.4843C11.8133 36.5953 11.9306 30.6506 15.0453 27.5375C14.9984 27.3524 14.9937 27.1435 15.0687 26.9094C15.8802 24.3595 17.0436 21.9473 17.9817 19.4441C18.3382 18.4858 19.5438 18.282 20.1348 19.1652C21.2137 20.7843 22.0158 22.5395 22.6116 24.3782C27.7199 24.3679 32.8282 24.2019 37.9271 24.4584C38.9263 22.5875 39.9535 20.7507 41.3749 19.1503C41.9894 18.4564 43.087 18.8808 43.3403 19.667C44.0674 21.9021 44.5646 24.1977 44.6162 26.5522C44.6209 26.6678 44.6021 26.7713 44.5787 26.8693C47.8154 31.8295 46.2674 39.928 42.0972 43.9155ZM30.3233 4.99198H32.6781C34.1979 4.99198 34.1979 7.33149 32.6781 7.33149H30.3233C28.8081 7.33149 28.8081 4.99198 30.3233 4.99198ZM54.2981 16.8127C54.5045 14.0898 54.8281 11.3964 55.4004 8.75982C50.1655 8.64091 44.9821 7.70828 39.7378 7.77729C38.2226 7.79734 38.2226 5.45783 39.7378 5.43778C45.1744 5.36596 50.5454 6.37834 55.9727 6.43663C56.2682 5.39627 56.6107 4.36711 57 3.34914C53.7352 3.47924 50.4094 3.22137 47.1727 3.08474C43.1996 2.9164 39.2312 2.72101 35.258 2.65199C27.429 2.51583 19.5485 1.41159 11.7429 2.42163C11.6772 2.91919 11.6069 3.41582 11.5318 3.91198C15.9271 4.29297 20.2943 5.05493 24.7224 4.88006C26.2376 4.8199 26.2329 7.16035 24.7224 7.22004C20.1723 7.40004 15.6785 6.58585 11.1613 6.21699C11.1566 6.21699 11.1566 6.21606 11.1519 6.21606C9.62267 14.9898 7.10838 23.5551 5.3634 32.2935C4.28451 37.7042 3.54336 43.1974 3.27129 48.7097C3.13526 51.3957 3.14933 54.0845 3.0602 56.7723C2.98984 58.9389 2.92417 61.1189 3.215 63.27C11.3442 63.291 19.4687 63.5386 27.5979 63.6641C31.7634 63.7289 35.9241 63.7676 40.0896 63.7121C42.1301 63.6846 44.3066 63.4029 46.3378 63.623C47.5667 63.7573 48.8943 64.1276 50.1373 63.955C50.1561 61.9429 50.0013 59.9564 50.2499 57.9172C50.5501 55.4088 50.8316 52.9066 51.0802 50.3922C51.6196 44.871 52.0793 39.3447 52.5672 33.8193C53.0691 28.1428 53.8665 22.4966 54.2981 16.8127Z" fill="#86C3C6"/>
<path fill-rule="evenodd" clip-rule="evenodd" d="M36.5179 33.2899C35.0189 33.2899 35.0189 30.9768 36.5179 30.9768C38.0122 30.9768 38.0122 33.2899 36.5179 33.2899ZM20.3158 33.3923C19.867 33.839 19.1175 33.8362 18.6734 33.3923C18.2801 32.9999 18.2338 32.3825 18.5253 31.9339C18.7011 31.507 19.1175 31.1967 19.6033 31.1967C20.2325 31.1967 20.7692 31.7232 20.7646 32.3539C20.7646 32.7684 20.6072 33.0995 20.3158 33.3923ZM41.3248 27.079C41.3248 27.0744 41.3248 27.0707 41.3248 27.0661C41.2971 25.723 41.0935 24.4118 40.7882 23.1194C40.0248 24.2873 39.3863 25.5367 38.734 26.7682C38.5535 27.1085 38.1233 27.3639 37.7346 27.3409C32.428 27.0329 27.1214 27.2224 21.8148 27.2311C21.8009 27.2311 21.7916 27.2279 21.7824 27.2279C21.1856 27.5871 20.2741 27.4704 20.0336 26.6018C19.6866 25.3482 19.2424 24.1485 18.6826 23C18.0488 24.5362 17.4011 26.0674 16.8736 27.6461C17.1605 28.1463 17.142 28.8536 16.5405 29.2764C13.5981 31.3405 13.45 37.8972 14.8842 40.8333C16.8366 44.8168 22.6059 45.7274 26.5662 45.9316C30.9799 46.1594 36.2357 45.9953 39.5205 42.5977C42.9256 39.0826 44.3645 32.3604 41.3757 28.1998C41.0796 27.789 41.1166 27.3874 41.3248 27.079Z" fill="#FFFFFE"/>
<path fill-rule="evenodd" clip-rule="evenodd" d="M58.2624 6C56.8651 10.2019 56.4957 14.5895 56.0978 19.0151C55.6052 24.4675 54.8331 29.891 54.3926 35.349C53.9664 40.63 53.4595 45.904 52.9338 51.1766C52.6875 53.6595 52.3465 56.1312 52.0954 58.6122C51.9107 60.4287 52.0528 62.2072 52.0433 64C53.9474 63.9355 55.842 63.8138 57.7367 63.9977C58.1393 61.897 58.1819 59.7554 58.2435 57.6162C58.3098 55.1798 58.5087 52.7508 58.6555 50.3181C58.9729 45.0956 59.0629 39.8963 58.9587 34.6659C58.7597 25.1101 58.3524 15.5586 58.2624 6Z" fill="#86C3C6"/>
<path fill-rule="evenodd" clip-rule="evenodd" d="M58.308 50.6353C58.1628 53.0873 57.966 55.5355 57.9005 57.9911C57.8396 60.1473 57.7974 62.3058 57.3992 64.4231C55.5254 64.2378 53.6515 64.3604 51.7683 64.4254C51.7777 62.6184 51.6371 60.8259 51.8198 58.995C52.0681 56.4944 52.4054 54.0032 52.649 51.5007C53.169 46.1864 53.6702 40.8707 54.0919 35.5479C54.5275 30.0468 55.2911 24.5804 55.7783 19.085C56.1718 14.6243 56.5372 10.202 57.9192 5.96696C58.0082 15.6011 58.4111 25.2282 58.6078 34.8595C58.7109 40.1312 58.6219 45.3716 58.308 50.6353ZM50.3629 50.8647C50.1146 53.3882 49.8335 55.8996 49.5337 58.417C49.2854 60.4637 49.44 62.4574 49.4213 64.4769C48.1799 64.6501 46.8541 64.2785 45.6268 64.1437C43.5983 63.9228 41.4247 64.2055 39.3869 64.2331C35.2269 64.2888 31.0717 64.2499 26.9117 64.1849C18.7933 64.059 10.6795 63.8105 2.56109 63.7894C2.27065 61.6304 2.33623 59.4425 2.4065 57.2681C2.49551 54.5704 2.48145 51.8718 2.61731 49.1761C2.88902 43.6437 3.62918 38.1304 4.70665 32.7C6.44932 23.9299 8.96028 15.3334 10.4875 6.52764C10.4921 6.52764 10.4921 6.52858 10.4968 6.52858C15.0081 6.89878 19.496 7.71594 24.0401 7.53528C25.5485 7.47538 25.5532 5.1264 24.0401 5.18678C19.6178 5.36228 15.2564 4.59754 10.8669 4.21518C10.9419 3.71721 11.0121 3.21877 11.0777 2.7194C18.8729 1.70567 26.7431 2.81394 34.5617 2.9506C38.5296 3.01986 42.4928 3.21596 46.4606 3.38492C49.693 3.52204 53.0144 3.78086 56.2749 3.65028C55.8861 4.67196 55.5441 5.70487 55.249 6.74901C49.8289 6.69051 44.465 5.67445 39.0355 5.74652C37.5224 5.76665 37.5224 8.11469 39.0355 8.09456C44.2729 8.02529 49.4494 8.96133 54.6774 9.08067C54.1059 11.7268 53.7827 14.4301 53.5766 17.1628C53.1456 22.8675 52.3492 28.5342 51.8479 34.2314C51.3607 39.7769 50.9016 45.3234 50.3629 50.8647ZM60.2474 2.67072C60.2474 2.02954 60.2381 1.43469 59.9055 1.24C59.437 1.08368 58.8467 1.11597 58.4017 1.16137C54.4713 1.56106 50.3957 1.19975 46.4606 1.03641C42.2819 0.862777 38.1033 0.664338 33.9246 0.591328C25.8717 0.450455 17.8751 -0.62879 9.84567 0.532358C9.39595 0.597412 9.14298 0.850609 9.0446 1.16418C8.95559 1.30646 8.89469 1.4726 8.87127 1.66402C7.51273 12.6067 4.11638 23.1553 2.07389 33.9684C1.08544 39.1956 0.495177 44.5216 0.232839 49.8322C0.101669 52.5065 0.125092 55.1873 0.0360847 57.8629C-0.0435537 60.3111 -0.0201306 62.7406 0.406169 65.1588C0.504546 65.7298 0.902739 65.9872 1.33372 66.0059C1.48832 66.0841 1.66633 66.1328 1.87714 66.1328C10.4406 66.1407 19.0041 66.4103 27.5676 66.5432C31.7275 66.6083 35.8828 66.6279 40.0427 66.5732C42.1274 66.5446 44.287 66.2933 46.3576 66.5797C47.6411 66.7576 48.9341 67.0122 50.1989 66.7374C50.3161 66.7786 50.4426 66.8058 50.569 66.8044C52.9348 66.7782 55.2958 66.525 57.6569 66.7973C58.2659 67.1741 59.1981 67.0594 59.423 66.1655C60.5894 61.5967 60.2756 56.6292 60.5754 51.9481C60.9314 46.4677 61.0673 41.0097 60.9689 35.5184C60.7721 24.5683 60.2615 13.6246 60.2474 2.67072Z" fill="#555C5C"/>
<path fill-rule="evenodd" clip-rule="evenodd" d="M29.9815 7H32.0154C33.3282 7 33.3282 5 32.0154 5H29.9815C28.6728 5 28.6728 7 29.9815 7Z" fill="#555C5C"/>
<path fill-rule="evenodd" clip-rule="evenodd" d="M40.1198 42.2808C36.7914 45.6622 31.466 45.8255 26.9938 45.5988C22.981 45.3956 17.1352 44.4893 15.1569 40.5247C13.7037 37.6026 13.8537 31.077 16.8352 29.0227C17.4446 28.6019 17.4633 27.898 17.1727 27.4001C17.7071 25.8289 18.3634 24.305 19.0057 22.7761C19.5729 23.9191 20.0229 25.1131 20.3745 26.3608C20.6183 27.2253 21.5418 27.3414 22.1465 26.9839C22.1559 26.9839 22.1653 26.9871 22.1793 26.9871C27.5563 26.9784 32.9333 26.7898 38.3103 27.0963C38.7041 27.1193 39.1401 26.8651 39.3229 26.5264C39.9839 25.3008 40.6308 24.0572 41.4043 22.8949C41.7137 24.1811 41.92 25.4862 41.9481 26.8228C41.9481 26.8274 41.9481 26.8311 41.9481 26.8357C41.7371 27.1427 41.6996 27.5423 41.9997 27.9512C45.028 32.092 43.5701 38.7823 40.1198 42.2808ZM44.3014 26.8228C44.2498 24.506 43.7529 22.247 43.0263 20.0476C42.7732 19.274 41.6762 18.8564 41.0621 19.5392C39.6417 21.1141 38.615 22.9215 37.6165 24.7625C32.5208 24.5101 27.4157 24.6735 22.3106 24.6836C21.7152 22.8743 20.9136 21.1471 19.8354 19.5539C19.2447 18.6848 18.04 18.8853 17.6837 19.8283C16.7461 22.2915 15.5835 24.6652 14.7725 27.1743C14.6975 27.4047 14.7022 27.6103 14.7491 27.7924C11.6363 30.8558 11.5191 36.7055 12.6677 40.5325C14.2522 45.7929 20.8339 47.3067 25.6859 47.8019C31.2644 48.3718 37.5509 47.8964 41.784 43.9088C45.9515 39.985 47.4985 32.0159 44.2639 27.1349C44.2873 27.0385 44.3061 26.9366 44.3014 26.8228Z" fill="#555C5C"/>
<path fill-rule="evenodd" clip-rule="evenodd" d="M19.0431 31C18.6428 31 18.2997 31.2453 18.1548 31.5829C17.9147 31.9376 17.9528 32.4257 18.2768 32.7359C18.6428 33.0869 19.2604 33.0891 19.6302 32.7359C19.8704 32.5044 20 32.2427 20 31.915C20.0038 31.4163 19.5616 31 19.0431 31Z" fill="#555C5C"/>
<path fill-rule="evenodd" clip-rule="evenodd" d="M37.0015 31C35.6662 31 35.6662 33 37.0015 33C38.3328 33 38.3328 31 37.0015 31Z" fill="#555C5C"/>
</svg>
