<svg xmlns="http://www.w3.org/2000/svg" width="19" height="13"><g fill="none" fill-rule="evenodd"><path fill="#00247D" d="M0 13h18.962V0H0z"/><path fill="#FFF" d="M7.11 3.963V0h4.741v3.963l7.11-3.25V3.62l-1.56.713h1.56v4.334h-1.56l1.56.713v2.907l-7.11-3.25V13h-4.74V9.037L0 12.287V9.38l1.56-.713H0V4.333h1.56L0 3.62V.713z"/><path d="M8.059 0v5.2H0v2.6h8.059V13h2.844V7.8h8.059V5.2h-8.059V0H8.06zm4.043 4.333h2.12l4.74-2.166v-.97l-6.86 3.136zM0 3.136l2.62 1.197h2.12L0 2.167v.969zm14.222 5.53l4.74 2.167v-.969l-2.62-1.197h-2.12zm-9.481 0L0 10.835v.969l6.86-3.136H4.74z" fill="#CF142B"/><path stroke="#333" opacity=".2" d="M.5.5h18v12H.5z"/></g></svg>
