<?xml version="1.0" encoding="UTF-8"?>
<svg width="21px" height="21px" viewBox="0 0 21 21" version="1.1" xmlns="http://www.w3.org/2000/svg" xmlns:xlink="http://www.w3.org/1999/xlink">
    <!-- Generator: Sketch 53.2 (72643) - https://sketchapp.com -->
    <title>GIA_S</title>
    <desc>Created with Sketch.</desc>
    <g id="zz" stroke="none" stroke-width="1" fill="none" fill-rule="evenodd" stroke-linecap="round" stroke-linejoin="round">
        <g id="Artboard" transform="translate(-160.000000, -145.000000)">
            <g id="GIA-min" transform="translate(164.000000, 147.000000)">
                <g id="List">
                    <path d="M12.2701525,7.2 L6.51851852,7.2 L6.51851852,6.4 L6.51851852,0.8 L0.766884532,0.8 L0.766884532,17.2 L12.2701525,17.2 L12.2701525,7.2 Z M12.0784314,6.4 L7.28540305,1.4 L7.28540305,6.4 L12.0784314,6.4 Z M0,0 L6.90196078,0 L13.037037,6.4 L13.037037,18 L0,18 L0,0 Z M7.51851852,15.9 L7.51851852,15.6 L9.2962963,15.6 L9.2962963,15.9 L7.51851852,15.9 Z M2.69382716,8.43037975 L8.34320988,8.43037975 L8.34320988,8.88607595 L2.69382716,8.88607595 L2.69382716,8.43037975 Z M2.55555556,10.2 L6.7037037,10.2 L6.7037037,10.6556962 L2.55555556,10.6556962 L2.55555556,10.2 Z M2.55555556,12 L5.51851852,12 L5.51851852,12.4556962 L2.55555556,12.4556962 L2.55555556,12 Z" id="Rectangle-39" fill="#FF6901"></path>
                    <g id="Group-15" transform="translate(7.111111, 3.000000)">
                        <polygon id="Rectangle" fill="#FFFFFF" transform="translate(5.204406, 5.122801) rotate(28.000000) translate(-5.204406, -5.122801) " points="4.01334787 0.508065709 6.47656275 0.486723981 6.39546418 9.73753716 3.9322493 9.75887889"></polygon>
                        <path d="M5.4736463,9.32428553 L5.4736463,0.632279459 C5.4736463,0.464554829 5.33478958,0.328587152 5.16350114,0.328587152 L3.84538419,0.328587152 C3.67409575,0.328587152 3.53523903,0.464554829 3.53523903,0.632279459 L3.53523903,9.32342631 L4.51073773,11.6889898 L5.4736463,9.32428553 Z M3.84538419,-0.051028233 L5.16350114,-0.051028233 C5.54890014,-0.051028233 5.86132776,0.254899041 5.86132776,0.632279459 L5.86132776,9.3971769 L4.5130093,12.7083681 L3.14755758,9.3971769 L3.14755758,0.632279459 C3.14755758,0.254899041 3.45998519,-0.051028233 3.84538419,-0.051028233 Z" id="Rectangle" fill="#FF6901" transform="translate(4.504443, 6.328670) rotate(-332.000000) translate(-4.504443, -6.328670) "></path>
                        <polygon id="Line" fill="#FF6901" transform="translate(6.513924, 2.729091) rotate(-332.000000) translate(-6.513924, -2.729091) " points="5.30630372 2.9302362 7.71820162 2.90933909 7.72154516 2.52794592 5.30964726 2.54884303"></polygon>
                        <polygon id="Line-Copy" fill="#FF6901" transform="translate(3.055821, 9.097520) rotate(-332.000000) translate(-3.055821, -9.097520) " points="1.84820077 9.29866551 4.26009867 9.2777684 4.26344221 8.89637523 1.85154431 8.91727234"></polygon>
                    </g>
                </g>
            </g>
        </g>
    </g>
</svg>