<svg xmlns="http://www.w3.org/2000/svg" width="135" height="40" viewBox="0 0 135 40">
    <defs>
        <linearGradient id="a" x1="91.536%" x2="-37.559%" y1="4.839%" y2="71.968%">
            <stop offset="0%" stop-color="#00A0FF"/>
            <stop offset=".657%" stop-color="#00A1FF"/>
            <stop offset="26.01%" stop-color="#00BEFF"/>
            <stop offset="51.22%" stop-color="#00D2FF"/>
            <stop offset="76.04%" stop-color="#00DFFF"/>
            <stop offset="100%" stop-color="#00E3FF"/>
        </linearGradient>
        <linearGradient id="b" x1="107.728%" x2="-130.665%" y1="49.428%" y2="49.428%">
            <stop offset="0%" stop-color="#FFE000"/>
            <stop offset="40.87%" stop-color="#FFBD00"/>
            <stop offset="77.54%" stop-color="#FFA500"/>
            <stop offset="100%" stop-color="#FF9C00"/>
        </linearGradient>
        <linearGradient id="c" x1="86.389%" x2="-49.888%" y1="17.815%" y2="194.393%">
            <stop offset="0%" stop-color="#FF3A44"/>
            <stop offset="100%" stop-color="#C31162"/>
        </linearGradient>
        <linearGradient id="d" x1="-18.579%" x2="42.275%" y1="-54.527%" y2="24.69%">
            <stop offset="0%" stop-color="#32A071"/>
            <stop offset="6.85%" stop-color="#2DA771"/>
            <stop offset="47.62%" stop-color="#15CF74"/>
            <stop offset="80.09%" stop-color="#06E775"/>
            <stop offset="100%" stop-color="#00F076"/>
        </linearGradient>
    </defs>
    <g fill="none" fill-rule="nonzero">
        <path fill="#374044" d="M130 40H5c-2.8 0-5-2.2-5-5V5c0-2.8 2.2-5 5-5h125c2.8 0 5 2.2 5 5v30c0 2.7-2.2 5-5 5z"/>
        <g fill="#FFF">
            <path d="M41.424 7.273c.227-.136.483-.25.771-.344a3.267 3.267 0 0 1 1.014-.141c.627 0 1.121.149 1.483.446.362.297.543.698.543 1.203 0 .401-.121.737-.363 1.009a1.757 1.757 0 0 1-.927.543v.029c.207.033.403.089.587.17.185.081.347.189.485.325a1.471 1.471 0 0 1 .451 1.078c0 .362-.073.666-.219.912a1.83 1.83 0 0 1-.572.602 2.403 2.403 0 0 1-.79.334 3.882 3.882 0 0 1-.873.102c-.311 0-.618-.033-.922-.097a2.863 2.863 0 0 1-.844-.32l.262-.805c.168.084.385.165.65.243.265.078.533.116.805.116.446 0 .791-.1 1.033-.3a.994.994 0 0 0 .364-.805.987.987 0 0 0-.146-.558 1.064 1.064 0 0 0-.379-.345 1.655 1.655 0 0 0-.519-.174 3.43 3.43 0 0 0-.567-.049h-.437V9.65h.437c.2 0 .386-.025.558-.078.171-.051.32-.124.446-.218s.225-.206.296-.335a.903.903 0 0 0 .106-.437c0-.291-.104-.519-.311-.684-.207-.165-.485-.248-.834-.248-.239 0-.479.039-.718.116a5.295 5.295 0 0 0-.641.252l-.229-.745zM49.755 13.433l-.077-.543h-.029c-.316.433-.775.65-1.377.65-.214 0-.407-.036-.582-.107a1.435 1.435 0 0 1-.456-.291 1.285 1.285 0 0 1-.301-.437 1.408 1.408 0 0 1-.106-.553c0-.588.239-1.03.718-1.324.479-.294 1.157-.441 2.037-.441V10.3c0-.621-.326-.931-.978-.931-.465 0-.875.117-1.229.349l-.213-.688c.433-.271.972-.407 1.617-.407 1.233 0 1.85.65 1.85 1.95v1.736c0 .485.023.86.068 1.125h-.942v-.001zm-.145-2.347c-.585 0-1.021.074-1.307.223-.286.149-.429.392-.429.728 0 .246.067.43.202.553a.731.731 0 0 0 .512.184 1.05 1.05 0 0 0 .708-.272.988.988 0 0 0 .228-.306.866.866 0 0 0 .086-.383v-.727zM55.683 8.719v.863h-1.96v3.851h-1.047V8.719zM61.677 11.018c0 .375-.052.718-.155 1.028a2.39 2.39 0 0 1-.432.795 1.932 1.932 0 0 1-1.508.699c-.621 0-1.067-.223-1.339-.669h-.02v2.483h-1.048v-5.083a38.698 38.698 0 0 0-.038-1.553h.921l.059.747h.02c.349-.562.879-.844 1.591-.844.277 0 .535.058.771.174.236.117.441.28.616.49.175.21.312.462.412.757.1.295.15.62.15.976zm-1.066.039c0-.233-.028-.448-.083-.645a1.477 1.477 0 0 0-.242-.504 1.183 1.183 0 0 0-.388-.33 1.067 1.067 0 0 0-.51-.121c-.148 0-.294.033-.437.097a1.187 1.187 0 0 0-.373.262c-.107.11-.192.243-.257.398-.065.155-.098.32-.098.495v.786c0 .174.027.336.083.485.055.149.132.278.232.388.1.11.22.196.359.257.139.062.292.092.46.092.395 0 .702-.15.922-.451.22-.301.332-.705.332-1.209zM67.305 8.719l-1.194 3.269c-.284.776-.561 1.411-.829 1.906-.269.495-.525.855-.771 1.082-.362.323-.747.521-1.155.591l-.252-.882c.271-.071.53-.21.776-.417.245-.207.442-.465.592-.776a.594.594 0 0 0 .077-.213.88.88 0 0 0-.058-.223L62.783 8.72h1.154l.893 2.629c.046.123.091.262.136.417.046.155.094.327.146.514h.02a6.41 6.41 0 0 0 .106-.393c.039-.158.091-.341.155-.548l.796-2.619h1.116v-.001zM69.119 10.678h.484c.355 0 .631-.064.824-.194.193-.13.291-.288.291-.476a.54.54 0 0 0-.248-.465c-.164-.116-.393-.175-.684-.175-.188 0-.377.031-.566.092a2.98 2.98 0 0 0-.529.228l-.271-.678a2.9 2.9 0 0 1 .811-.305 4.01 4.01 0 0 1 .809-.083c.215 0 .43.021.646.063.215.042.408.113.576.213.168.1.307.231.412.393.107.162.16.362.16.602 0 .149-.029.28-.088.393a1.017 1.017 0 0 1-.232.3 1.254 1.254 0 0 1-.324.213 1.743 1.743 0 0 1-.363.122v.029c.154.02.305.059.451.117.145.058.275.134.393.228.115.094.209.207.281.339.07.133.105.283.105.451 0 .278-.066.511-.203.698a1.46 1.46 0 0 1-.52.446 2.51 2.51 0 0 1-.693.238 3.938 3.938 0 0 1-1.599-.019 2.71 2.71 0 0 1-.768-.286l.273-.689c.168.091.359.167.576.228.217.061.438.092.664.092.355 0 .629-.069.82-.208.189-.139.285-.312.285-.519a.588.588 0 0 0-.096-.344.71.71 0 0 0-.271-.228 1.33 1.33 0 0 0-.408-.121 3.444 3.444 0 0 0-.504-.034h-.494v-.661zM74.715 8.719v1.668c0 .382-.006.725-.02 1.028-.014.304-.029.624-.049.96l.02.019.363-.723c.121-.236.242-.477.365-.723l1.164-2.231h1.357v4.714h-.99v-1.668c0-.349.01-.698.025-1.047.016-.35.033-.702.053-1.058h-.049a6.95 6.95 0 0 1-.33.757c-.109.213-.219.433-.328.66-.201.388-.4.776-.598 1.164-.197.388-.406.786-.625 1.193h-1.357V8.719h.999zM83.445 8.719v.863H82.01v3.851h-1.03V9.582h-1.426v-.863zM88.789 10.853c0 .09-.004.176-.01.257a1.753 1.753 0 0 1-.029.218h-3.143c.014.446.154.791.422 1.033.268.242.623.364 1.062.364.459 0 .883-.074 1.271-.223l.164.728c-.447.194-.973.291-1.582.291-.367 0-.697-.057-.988-.17a2.044 2.044 0 0 1-.738-.48 2.12 2.12 0 0 1-.461-.747 2.868 2.868 0 0 1-.158-.979c0-.362.053-.697.158-1.004.107-.307.258-.574.451-.8.195-.227.43-.404.703-.534.275-.129.582-.194.918-.194a2 2 0 0 1 .811.16c.242.106.449.258.619.456.172.197.303.434.393.708.092.274.137.58.137.916zm-1-.271c0-.369-.088-.668-.266-.897-.178-.229-.435-.345-.771-.345a1.01 1.01 0 0 0-.775.349c-.213.233-.336.53-.369.893h2.181zM93.01 8.758c.188-.032.426-.058.717-.078.291-.02.588-.029.893-.029.193 0 .412.012.654.034.242.022.475.074.693.155.221.081.404.202.553.364.149.162.225.381.225.659a.916.916 0 0 1-.287.679 1.155 1.155 0 0 1-.301.208c-.113.055-.23.096-.354.121l.01.029c.342.058.621.181.834.369.213.188.32.446.32.776s-.092.592-.271.786c-.182.194-.404.34-.67.437a3.277 3.277 0 0 1-.84.185 9.444 9.444 0 0 1-.789.039c-.26 0-.514-.006-.762-.02-.25-.013-.457-.026-.625-.039V8.758zm1.008 1.882h.533c.162 0 .316-.011.461-.034.146-.022.273-.058.383-.106a.647.647 0 0 0 .258-.194.477.477 0 0 0 .092-.296.5.5 0 0 0-.268-.47c-.178-.1-.457-.15-.838-.15-.109 0-.205.003-.287.01l-.334.029v1.211zm0 2.085c.129.013.238.022.324.029a3.925 3.925 0 0 0 .743-.019 1.45 1.45 0 0 0 .408-.111.75.75 0 0 0 .295-.222.58.58 0 0 0 .113-.371c0-.27-.121-.456-.359-.559-.24-.103-.562-.154-.971-.154h-.553v1.407z"/>
        </g>
        <path fill="#FFF" d="M68 21.7c-2.4 0-4.3 1.8-4.3 4.3 0 2.4 1.9 4.3 4.3 4.3s4.3-1.8 4.3-4.3c0-2.6-1.9-4.3-4.3-4.3zm0 6.8c-1.3 0-2.4-1.1-2.4-2.6s1.1-2.6 2.4-2.6c1.3 0 2.4 1 2.4 2.6 0 1.5-1.1 2.6-2.4 2.6zm-9.3-6.8c-2.4 0-4.3 1.8-4.3 4.3 0 2.4 1.9 4.3 4.3 4.3S63 28.5 63 26c0-2.6-1.9-4.3-4.3-4.3zm0 6.8c-1.3 0-2.4-1.1-2.4-2.6s1.1-2.6 2.4-2.6c1.3 0 2.4 1 2.4 2.6 0 1.5-1.1 2.6-2.4 2.6zM47.6 23v1.8h4.3c-.1 1-.5 1.8-1 2.3-.6.6-1.6 1.3-3.3 1.3-2.7 0-4.7-2.1-4.7-4.8 0-2.7 2.1-4.8 4.7-4.8 1.4 0 2.5.6 3.3 1.3l1.3-1.3c-1.1-1-2.5-1.8-4.5-1.8-3.6 0-6.7 3-6.7 6.6 0 3.6 3.1 6.6 6.7 6.6 2 0 3.4-.6 4.6-1.9 1.2-1.2 1.6-2.9 1.6-4.2 0-.4 0-.8-.1-1.1h-6.2zM93 24.4c-.4-1-1.4-2.7-3.6-2.7s-4 1.7-4 4.3c0 2.4 1.8 4.3 4.2 4.3 1.9 0 3.1-1.2 3.5-1.9l-1.4-1c-.5.7-1.1 1.2-2.1 1.2s-1.6-.4-2.1-1.3l5.7-2.4-.2-.5zm-5.8 1.4c0-1.6 1.3-2.5 2.2-2.5.7 0 1.4.4 1.6.9l-3.8 1.6zm-4.7 4.1h1.9V17.4h-1.9v12.5zm-3-7.3c-.5-.5-1.3-1-2.3-1-2.1 0-4.1 1.9-4.1 4.3s1.9 4.2 4.1 4.2c1 0 1.8-.5 2.2-1h.1v.6c0 1.6-.9 2.5-2.3 2.5-1.1 0-1.9-.8-2.1-1.5l-1.6.7c.5 1.1 1.7 2.5 3.8 2.5 2.2 0 4-1.3 4-4.4v-7.6h-1.8v.7zm-2.2 5.9c-1.3 0-2.4-1.1-2.4-2.6s1.1-2.6 2.4-2.6c1.3 0 2.3 1.1 2.3 2.6s-1 2.6-2.3 2.6zm24.4-11.1h-4.5v12.5h1.9v-4.7h2.6c2.1 0 4.1-1.5 4.1-3.9s-2-3.9-4.1-3.9zm.1 6h-2.7v-4.3h2.7c1.4 0 2.2 1.2 2.2 2.1-.1 1.1-.9 2.2-2.2 2.2zm11.5-1.8c-1.4 0-2.8.6-3.3 1.9l1.7.7c.4-.7 1-.9 1.7-.9 1 0 1.9.6 2 1.6v.1c-.3-.2-1.1-.5-1.9-.5-1.8 0-3.6 1-3.6 2.8 0 1.7 1.5 2.8 3.1 2.8 1.3 0 1.9-.6 2.4-1.2h.1v1h1.8v-4.8c-.2-2.2-1.9-3.5-4-3.5zm-.2 6.9c-.6 0-1.5-.3-1.5-1.1 0-1 1.1-1.3 2-1.3.8 0 1.2.2 1.7.4-.2 1.2-1.2 2-2.2 2zm10.5-6.6l-2.1 5.4h-.1l-2.2-5.4h-2l3.3 7.6-1.9 4.2h1.9l5.1-11.8h-2zm-16.8 8h1.9V17.4h-1.9v12.5z"/>
        <path fill="url(#a)" d="M1.4.5c-.3.3-.5.8-.5 1.4V24c0 .6.2 1.1.5 1.4l.1.1 12.4-12.4v-.2L1.4.5z" transform="translate(9 7)"/>
        <path fill="url(#b)" d="M18 17.3l-4.1-4.1V12.9L18 8.8l.1.1 4.9 2.8c1.4.8 1.4 2.1 0 2.9l-5 2.7z" transform="translate(9 7)"/>
        <path fill="url(#c)" d="M18.1 17.2L13.9 13 1.4 25.5c.5.5 1.2.5 2.1.1l14.6-8.4" transform="translate(9 7)"/>
        <path fill="url(#d)" d="M18.1 8.8L3.5.5C2.6 0 1.9.1 1.4.6L13.9 13l4.2-4.2z" transform="translate(9 7)"/>
        <g fill="#000">
            <path d="M27 24.1l-14.5 8.2c-.8.5-1.5.4-2 0l-.1.1.1.1c.5.4 1.2.5 2 0L27 24.1z" opacity=".2"/>
            <path d="M10.4 32.3c-.3-.3-.4-.8-.4-1.4v.1c0 .6.2 1.1.5 1.4v-.1h-.1z" opacity=".12"/>
        </g>
        <path fill="#000" d="M32 21.3l-5 2.8.1.1 4.9-2.8c.7-.4 1-.9 1-1.4 0 .5-.4.9-1 1.3z" opacity=".12"/>
        <path fill="#FFF" d="M12.5 7.6L32 18.7c.6.4 1 .8 1 1.3 0-.5-.3-1-1-1.4L12.5 7.5C11.1 6.7 10 7.4 10 9v.1c0-1.6 1.1-2.3 2.5-1.5z" opacity=".25"/>
    </g>
</svg>
