<svg width="20" height="20" xmlns="http://www.w3.org/2000/svg"><path d="M10 4c1.954 0 2.186.007 2.958.043 1.983.09 2.91 1.031 3 3C15.993 7.814 16 8.046 16 10c0 1.955-.007 2.186-.042 2.957-.091 1.967-1.015 2.91-3 3-.772.036-1.003.043-2.958.043-1.954 0-2.186-.007-2.957-.043-1.989-.09-2.91-1.036-3-3C4.007 12.185 4 11.954 4 9.999c0-1.954.008-2.185.043-2.957.09-1.968 1.015-2.91 3-3C7.815 4.007 8.046 4 10 4zm0 2.543a3.457 3.457 0 100 6.914 3.457 3.457 0 000-6.914zm0 5.7a2.244 2.244 0 110-4.487 2.244 2.244 0 010 4.487zm3.594-6.645a.808.808 0 100 1.617.808.808 0 000-1.617z" fill="#6A6E72" fill-rule="evenodd"/></svg>