<svg width="21" height="21" xmlns="http://www.w3.org/2000/svg"><g fill="#D14698" fill-rule="evenodd"><path d="M7.398 6.934a.901.901 0 0 1-.896-.905c0-.499.401-.904.896-.904.494 0 .896.405.896.904a.901.901 0 0 1-.896.905m0-2.396c-.814 0-1.477.67-1.477 1.491 0 .822.663 1.49 1.477 1.49.814 0 1.476-.668 1.476-1.49s-.662-1.49-1.476-1.49M4.465 9.935c0-.5.402-.905.896-.905.495 0 .896.406.896.905a.901.901 0 0 1-.896.904.901.901 0 0 1-.896-.904m2.373 0c0-.822-.663-1.491-1.477-1.491-.814 0-1.476.669-1.476 1.49 0 .822.662 1.491 1.476 1.491s1.477-.669 1.477-1.49M6.831 15.03a.901.901 0 0 1-.896-.904c0-.499.402-.904.896-.904s.896.405.896.904a.901.901 0 0 1-.896.905m0-2.396c-.814 0-1.476.67-1.476 1.491 0 .822.662 1.49 1.476 1.49s1.477-.668 1.477-1.49-.663-1.49-1.477-1.49"/><path d="M19.024 5.046l-3.968 7.706-2.215-1.342 5.984-6.506c.061-.065.121-.044.161-.017.04.03.08.08.038.16zm-5.581 11.908c-.913.964-2.447 1.4-4.571 1.308.111-.099.225-.212.334-.337l.011-.013c.364-.42.659-.971.535-1.596-.13-.658-.027-1.987.61-2.88.318-.444.723-.702 1.203-.775.034.038.063.078.107.106l2.565 1.593c.03.019.064.03.097.043.023.368.022 1.587-.891 2.551zm1.055-3.12l-2.473-1.536.413-.449 2.349 1.424-.289.56zm-10.8-7.169c1.191-2.404 3.245-3.39 4.759-3.794 1.812-.483 3.466-.276 3.964.061.913.617 1.066 1.594.42 2.682-.893 1.502.075 2.181.076 2.181.577.434 1.542.41 2.143.341l-3.5 3.805c-.037.041-.058.092-.081.142-.632.096-1.18.442-1.588 1.011-.696.976-.884 2.447-.709 3.336.073.367-.093.718-.327 1.011-.414.008-1.927-.035-3.492-1.003-2.398-1.483-3.942-5.174-1.664-9.773zm15.623-2.257a.686.686 0 0 0-.921.097l-2.761 3.002a.294.294 0 0 0-.179-.026c-.43.093-1.665.243-2.204-.161-.054-.04-.506-.414.083-1.404.803-1.35.575-2.681-.595-3.47-.69-.469-2.539-.647-4.436-.142-1.629.435-3.841 1.5-5.128 4.099-2.442 4.93-.738 8.917 1.88 10.535a7.31 7.31 0 0 0 3.208 1.066c-.195.15-.344.237-.348.24a.294.294 0 0 0 .116.546c.484.047.943.07 1.379.07 2.01 0 3.503-.502 4.447-1.5 1.18-1.245 1.073-2.816 1.043-3.105.03-.034.064-.064.085-.106l.43-.832v-.002l.003-.006 4.117-7.992a.7.7 0 0 0-.219-.909z"/></g></svg>