<svg width="20" height="20" xmlns="http://www.w3.org/2000/svg"><path d="M11.911 12.72a6.154 6.154 0 001.87-.745.888.888 0 00.26-1.26.965.965 0 00-1.265-.276 4.22 4.22 0 01-4.331 0 .964.964 0 00-1.299.282v.003a.887.887 0 00.294 1.25c.575.348 1.207.6 1.868.745l-1.8 1.732a.875.875 0 00-.014 1.269l.016.015c.178.177.42.265.661.265a.94.94 0 00.663-.265l1.776-1.702 1.768 1.703a.969.969 0 001.333-.023.884.884 0 000-1.26l-1.8-1.733zm-1.3-2.526c1.775-.002 3.214-1.387 3.217-3.096C13.828 5.39 12.384 4 10.61 4 8.837 4 7.393 5.39 7.393 7.099c.002 1.71 1.442 3.095 3.217 3.096zm0-4.378c.735 0 1.33.575 1.33 1.282 0 .708-.595 1.282-1.33 1.283-.736-.001-1.331-.574-1.333-1.282.001-.709.597-1.282 1.332-1.284z" fill="#6A6E72" fill-rule="evenodd"/></svg>