<svg width="20" height="20" xmlns="http://www.w3.org/2000/svg"><path d="M9.8 14.226l-.083.083C8.113 15.919 8.027 16 7.63 16c-.37 0-.606-.188-.815-.47a1.914 1.914 0 01-.213-.369l-1.566-4.336.003-.065-2.75-.896s-.388-.158-.263-.516c.025-.073.077-.136.233-.244.72-.502 13.335-5.036 13.335-5.036s.356-.12.566-.04c.097.036.158.077.21.228.019.054.03.17.028.287 0 .083-.011.16-.019.282-.077 1.24-2.375 10.491-2.375 10.491s-.138.542-.63.56c-.18.007-.399-.03-.66-.254-.464-.4-1.477-1.126-2.487-1.828-.144.147-.287.292-.427.432zm-.702-1.208c-.645-.44-1.186-.803-1.433-.969a.141.141 0 01-.06-.099c-.011-.052.045-.117.045-.117l5.013-4.753S8.225 9.482 6.4 10.51l-.005.112 1.346 3.735c.263-.248.61-.59 1.02-1l.08-.081.256-.258z" fill="#6A6E72" fill-rule="nonzero"/></svg>