<svg xmlns="http://www.w3.org/2000/svg" width="19" height="19"><g fill="#9BA5B1" fill-rule="nonzero" stroke="#9EA4AC" stroke-width=".3"><path d="M2.84 13.632h3.996c.148 0 .228-.087.217-.207l-.841-6.212-.016-.043a.45.45 0 0 0-.387-.275H2.672c-.141 0-.23.098-.216.24l.002.044-.037 6.079v.02c.039.192.23.354.42.354zM5.81 6.474a.87.87 0 0 1 .784.554h.019l.858 6.34c.038.389-.242.685-.634.685H2.84a.875.875 0 0 1-.84-.74v-.055l.037-6.082a.625.625 0 0 1 .635-.702H5.81zM9.602 13.025c.972.36 1.826.607 2.29.607h3.596c.415 0 .791-.139.9-.436a.767.767 0 0 0-.024-.583l-.036-.081v-.492l.321-.079c.291-.071.448-.236.496-.517a1.021 1.021 0 0 0-.16-.797l-.277-.407.446-.21c.31-.147.458-.424.419-.837v-.006c-.025-.295-.17-.534-.427-.74l-.43-.342.443-.326a.52.52 0 0 0 .225-.402 1.596 1.596 0 0 0-.378-1.153c-.205-.22-.508-.366-.915-.366h-3.283v-.42c0-.506.001-.795.007-1.14.003-.173.007-.334.012-.489.03-.638-.329-1.537-.78-2.05-.179-.203-.339-.303-.518-.332a.716.716 0 0 0-.145-.006c-.449 0-.82.17-.859.245l-.015.112c-.02.07-.01.145.059.412.12.47.156.847.082 1.34-.138.796-1.25 2.698-1.89 3.42l.841 6.075zm8.069-5.236l-.263.329.25.339.05-.038c.152.199.26.44.284.734.042.437-.08.793-.337 1.04l-.322.217.18.381.006-.002c.063.197.093.44.04.73-.075.444-.358.74-.81.851v.074c.021.047.04.096.054.146l.033.131c.035.188.026.391-.049.61-.245.666-1.054.722-1.299.722h-3.595c-.716 0-2.09-.5-2.674-.721l-.903-6.527c.433-.388 1.77-2.477 1.92-3.346.075-.5 0-.869-.075-1.165-.057-.222-.113-.425-.057-.628.132-.463.753-.666 1.28-.666.094 0 .17 0 .245.018.245.037.49.185.734.463.47.536.923 1.534.885 2.348a40.38 40.38 0 0 0-.018 1.187v.421h2.86c.622 0 1.017.277 1.224.5.414.462.527 1.072.49 1.478a.906.906 0 0 1-.114.39 2.502 2.502 0 0 0-.019-.016z"/></g><style xmlns="" class="darkreader darkreader--fallback">html, body, body :not(iframe) {
  background-color: #161718 !important;
  border-color: #6b6358 !important;
  color: #d1cfcc !important;
}</style></svg>
