<?xml version="1.0" encoding="UTF-8"?>
<svg width="16px" height="12px" viewBox="0 0 16 12" version="1.1" xmlns="http://www.w3.org/2000/svg" xmlns:xlink="http://www.w3.org/1999/xlink">
    <!-- Generator: sketchtool 61 (101010) - https://sketch.com -->
    <title>E114D040-5424-4E0F-A72B-457A82FFB131</title>
    <desc>Created with sketchtool.</desc>
    <g id="new" stroke="none" stroke-width="1" fill="none" fill-rule="evenodd">
        <g id="ic_troyka" transform="translate(-67.000000, -111.000000)">
            <g id="ic-troyka-mini" transform="translate(67.000000, 111.000000)">
                <rect id="Rectangle" stroke="#22ABD9" stroke-width="0.5" x="1" y="1" width="14" height="10" rx="0.75"></rect>
                <text id="ТРОЙКА" font-family="DINRoundPro-Black, DIN Round Pro" font-size="2" font-weight="700" letter-spacing="0.6" fill="#22ABD9">
                    <tspan x="2.6575" y="10">ТРОЙКА</tspan>
                </text>
                <path d="M11.1407292,2.10715412 L11.1428456,2.13066366 L11.1428456,2.54177807 L11.1650065,2.54870127 C11.5312255,2.67656875 11.695549,3.26220736 11.7127534,4.29123786 L11.7139877,4.44605163 L11.7294099,4.47224367 C11.8841888,4.72482008 12.0945386,4.8531314 12.3721382,4.86818369 L12.428562,4.86968729 C13.0506048,4.86968729 13.5698547,5.15413521 13.975992,5.71034578 C14.0197566,5.77028197 14.0020175,5.85126177 13.9363706,5.89121923 C13.8707238,5.93117669 13.7820283,5.91498073 13.7382637,5.85504454 C13.3979653,5.38900132 12.9868846,5.15165143 12.4959935,5.1318933 L12.428562,5.13054668 C11.9914884,5.13054668 11.6575157,4.92726664 11.4436413,4.53672813 C11.4337231,4.51861726 11.428562,4.49864677 11.428562,4.4783982 L11.4270467,4.29884857 C11.4094838,3.2811736 11.240526,2.78281214 10.9999886,2.78281214 C10.9298573,2.78281214 10.8715292,2.7366726 10.8594333,2.67582735 L10.8571317,2.65238245 L10.8571317,2.46978087 L10.844359,2.47802951 C10.8307661,2.48573039 10.8170733,2.49263364 10.8032647,2.4987348 L10.7614759,2.51462755 C10.6827394,2.53979303 10.5864898,2.54824375 10.470102,2.54583342 C10.4237094,2.54487266 10.3768476,2.54228138 10.3245615,2.53811324 L10.147744,2.52213858 L10.1428468,2.52195275 C10.102932,2.52195275 10.0653681,2.51681066 10.0301644,2.50681138 L9.99998988,2.49664939 L9.99998988,2.65238245 C9.99998988,2.68005613 9.99035727,2.70682306 9.97278729,2.72894657 L9.95814804,2.74461017 C9.80890504,2.88087038 9.72655015,3.08697691 9.71554661,3.36862208 L9.71484738,3.40678781 L9.74645763,3.46768221 C9.83660473,3.65114825 9.90070724,3.842415 9.94298955,4.03469087 L9.96233192,4.13088145 C9.97871968,4.22065453 9.98927428,4.30417035 9.99516256,4.37943505 L9.99974166,4.46125723 L9.99998988,4.4783982 L9.99998988,4.4783982 C9.99998988,4.49864677 9.9948263,4.51861726 9.98490807,4.53672813 L9.96582758,4.57509711 C9.95483467,4.59891164 9.94204344,4.62929652 9.92916695,4.66456557 C9.89394453,4.76104074 9.87300591,4.85662646 9.87300591,4.94214823 C9.87300591,5.04062712 9.90059928,5.11620612 9.95814804,5.16874865 C10.1268925,5.32281385 10.5354387,5.18259844 10.5691912,5.02125865 L10.5714177,5.00011698 C10.5714177,4.92808265 10.635377,4.86968729 10.7142747,4.86968729 C10.7931724,4.86968729 10.8571317,4.92808265 10.8571317,5.00011698 C10.8571317,5.40427513 10.1106482,5.67689358 9.75611779,5.3532041 C9.68510491,5.2883687 9.63811893,5.21067666 9.6121431,5.12333332 L9.59709771,5.12844528 L9.59709771,5.12844528 L9.57141899,5.13054668 L8.4285633,5.13054668 C8.36901415,5.13054668 8.31571126,5.0968211 8.29480215,5.04591391 C7.6175949,3.39712367 6.4717621,2.90891768 5.63531163,3.2907611 C5.30115662,3.44330437 5.14285317,3.6601031 5.14285317,3.95667941 C5.14285317,4.02070993 5.09231747,4.07396398 5.02567492,4.08500771 L4.9999962,4.08710911 L4.77342506,4.08710911 L5.10101133,4.38617047 C5.14449131,4.42586809 5.15527051,4.48651418 5.12777136,4.53672813 C5.00544625,4.76009599 5.02213396,5.03349982 5.18689578,5.36068005 C5.249443,5.44653774 5.30741401,5.53835569 5.36335459,5.63521945 L5.41348528,5.72436523 L5.416,5.733 L5.42178091,5.7429714 C5.42300534,5.7464681 5.42406639,5.75000717 5.42496217,5.75357881 L5.41348528,5.72436523 C5.42195347,5.7398283 5.42674174,5.75609294 5.42815314,5.77232906 C5.42875402,5.77963702 5.42871886,5.78700922 5.42799494,5.7943654 C5.42758622,5.7985999 5.42697163,5.80261795 5.42615597,5.80659668 C5.42565508,5.80903587 5.42502484,5.81168822 5.42430174,5.81432901 C5.24812319,6.45773945 5.32986499,6.83089449 5.63531163,6.97033226 C5.90562025,7.09372937 6.11836926,6.8994876 6.28997422,6.2727801 C6.33508519,6.1080332 6.60512567,6.16347384 6.5686486,6.32999331 L6.53391159,6.49556834 C6.39441949,7.19270468 6.39766021,7.62449594 6.51547953,7.76270042 L6.52958095,7.77734258 C6.58537007,7.82827855 6.58537007,7.91086206 6.52958095,7.96179803 C6.47379184,8.01273399 6.38333981,8.01273399 6.3275507,7.96179803 C6.18519689,7.83182771 6.12736565,7.58586238 6.14587935,7.21569897 L6.15113761,7.1334251 L6.14319004,7.14070915 C5.97633124,7.28130694 5.77822004,7.31240073 5.55056717,7.22202403 L5.50753648,7.20365199 C5.08150979,7.00916889 4.95838849,6.56380447 5.11035409,5.89726557 L5.13228175,5.80643337 L5.11950698,5.78859465 C5.04502432,5.68133364 4.98199681,5.57694884 4.93058458,5.47550633 C4.61178024,5.02150704 4.23837463,4.73190657 3.81196517,4.60213467 C3.79793867,4.5978659 3.78476631,4.59164844 3.77289669,4.58373544 L3.75612538,4.57062592 L3.54828376,4.38083678 L3.41122722,4.45249699 C3.21644093,4.5514602 3.09450802,4.60084372 3.018329,4.60793248 L3,4.60882789 C2.85688941,4.60882789 2.71676556,4.56998767 2.57999177,4.49431747 L2.57142785,4.48935429 L2.57142785,5.26097638 C2.57142785,5.76562234 2.48470676,6.19515107 2.30952556,6.54894884 L2.28599964,6.59370701 L2.2864372,6.61015929 C2.2985319,6.97417696 2.46331721,7.08792025 2.85613129,6.99063561 L2.92228455,6.97247485 L2.94201835,6.95370984 C3.06465028,6.83118134 3.12922299,6.71434038 3.14091121,6.60240465 L3.1428557,6.56527334 L3.14324225,6.55541919 C3.14396464,6.54682127 3.14561773,6.53833055 3.1481551,6.53007419 L3.1428557,6.56527334 C3.1428557,6.54886552 3.14617408,6.53316533 3.15223152,6.51870168 C3.15575581,6.51029822 3.16042114,6.5018825 3.16605704,6.4939812 C3.16888023,6.49006884 3.17172224,6.486524 3.17474826,6.48312108 C3.18048089,6.47648046 3.18804597,6.46952278 3.19652732,6.46334912 C3.2000784,6.46079706 3.20343412,6.45856856 3.2068956,6.45647407 C3.21138481,6.4537534 3.21648478,6.45105134 3.22182508,6.44861347 L3.23195341,6.44439411 C3.23967389,6.44152907 3.24773079,6.43926269 3.25605499,6.43765807 L3.22182508,6.44861347 C3.23818409,6.44114551 3.2553622,6.43681218 3.27254009,6.43536413 C3.27664546,6.43503858 3.28115412,6.43484364 3.28571266,6.43484364 L3.29870341,6.43536608 C3.30619576,6.43599719 3.31360659,6.43716627 3.32086533,6.43885185 L3.28571266,6.43484364 C3.3050426,6.43484364 3.32347586,6.43834882 3.34029153,6.444701 C3.3470585,6.44725364 3.35417143,6.45055092 3.36095901,6.45438208 C3.3677107,6.45820985 3.37408297,6.46253371 3.38001858,6.46730008 C3.38451864,6.47087923 3.3885732,6.4745583 3.39239588,6.4784799 C3.39794519,6.48417313 3.403216,6.49063778 3.40780813,6.49752132 C3.40994754,6.50078577 3.41177706,6.50381955 3.41348781,6.50694341 C3.63386787,6.90936137 3.52248644,7.31613036 3.10101386,7.70093863 C3.04522475,7.7518746 2.95477272,7.7518746 2.89898361,7.70093863 C2.84319449,7.65000267 2.84319449,7.56741915 2.89898361,7.51648319 C3.07074663,7.359662 3.17598219,7.20843126 3.21747362,7.05941149 C3.1835006,7.09975187 3.14434222,7.13966067 3.10101386,7.17921985 C3.08533176,7.19353775 3.06621382,7.20432544 3.04517407,7.2107286 C2.38367293,7.41204744 2,7.17851621 2,6.56527334 C2,6.54502477 2.00516358,6.52505428 2.01508181,6.50694341 C2.18195392,6.20223191 2.27227184,5.82257419 2.28432301,5.36736586 L2.28571392,5.26097638 L2.28571392,4.2175388 C2.28571392,4.10133836 2.43959115,4.04314496 2.52958601,4.12531108 C2.69531672,4.27662472 2.85159948,4.3479685 3,4.3479685 C3.01955748,4.3479685 3.21248091,4.25989808 3.49867945,4.10528708 C3.5467957,4.07929358 3.60620356,4.08163414 3.65123995,4.10935141 L3.67244171,4.12531108 L3.93514041,4.36518522 L3.97817098,4.37934184 C4.26380331,4.47836667 4.52513585,4.63878861 4.76232894,4.85968687 C4.76108578,4.78065799 4.77046892,4.70262796 4.78990207,4.62720874 L4.82999642,4.50761445 L4.32758811,4.04893898 L4.3115773,4.03175515 C4.25099901,3.95457052 4.30137457,3.84353276 4.40398781,3.82806402 L4.42856836,3.82624972 L4.86571066,3.82624972 L4.87210879,3.78351355 C4.92522855,3.48714485 5.11915869,3.25250862 5.4449146,3.0875522 L5.50753648,3.05744137 C6.46924912,2.6184152 7.73731143,3.12943122 8.48431939,4.77379328 L8.52656317,4.86968729 L9.57141899,4.86968729 L9.592,4.872 L9.59584403,4.82350023 C9.60701915,4.74368012 9.62868655,4.6626797 9.65811492,4.58207459 C9.66857819,4.55341542 9.67907935,4.527223 9.6891101,4.50392523 L9.71341881,4.45100796 L9.71017472,4.39802051 C9.70490229,4.33062773 9.69536763,4.25518236 9.68050544,4.17376647 C9.63805485,3.94121987 9.56171555,3.70889164 9.44364384,3.49329056 C9.43372561,3.47517969 9.42856203,3.4552092 9.42856203,3.43496063 C9.42856203,3.10583241 9.5091766,2.84114315 9.67403453,2.6455209 L9.71427595,2.60073229 L9.71427595,2.13066366 C9.71427595,1.99140709 9.91547587,1.95340555 9.98187152,2.06644175 L9.99265893,2.08941817 C10.0387779,2.21573941 10.0884532,2.26109336 10.1428468,2.26109336 L10.1719487,2.2621779 L10.2990368,2.27388637 C10.3675387,2.28021251 10.4234626,2.28394106 10.4765811,2.28504111 C10.5615726,2.28680123 10.6277334,2.28099232 10.6670735,2.26841856 C10.7193046,2.25172463 10.7939398,2.18358206 10.8793989,2.06073513 C10.9512679,1.95742374 11.1199275,1.99454297 11.1407292,2.10715412 Z" id="Combined-Shape" stroke="#22ABD9" stroke-width="0.1" fill="#22ABD9" fill-rule="nonzero"></path>
            </g>
        </g>
    </g>
</svg>