<svg width="20" height="20" xmlns="http://www.w3.org/2000/svg"><path d="M17.736 5.429a6.152 6.152 0 01-1.738.477 3.05 3.05 0 001.33-1.675 6.252 6.252 0 01-1.923.728 3.026 3.026 0 00-5.158 2.757A8.572 8.572 0 014.01 4.563c-.263.444-.41.96-.41 1.522 0 1.052.535 1.977 1.346 2.52a3.017 3.017 0 01-1.37-.379v.038a3.028 3.028 0 002.427 2.97 3.073 3.073 0 01-1.36.051 3.037 3.037 0 002.831 2.102A6.07 6.07 0 013 14.641 8.61 8.61 0 007.649 16c5.57 0 8.611-4.611 8.611-8.604 0-.128 0-.258-.009-.387a6.112 6.112 0 001.514-1.568l-.03-.012z" fill="#6A6E72" fill-rule="evenodd"/></svg>