<svg width="18" height="17" xmlns="http://www.w3.org/2000/svg"><g fill="#FFF" stroke="#FFF" stroke-width=".6" fill-rule="evenodd"><path d="M8.849 2.043c-2.163 0-3.922 1.771-3.922 3.949s1.759 3.95 3.922 3.95c2.162 0 3.921-1.772 3.921-3.95s-1.759-3.95-3.921-3.95m0 8.943c-2.734 0-4.957-2.24-4.957-4.993C3.892 3.24 6.115 1 8.849 1c2.733 0 4.957 2.24 4.957 4.992 0 2.754-2.224 4.993-4.957 4.993"/><path d="M1 16.728c.004-.058.344-5.704 5.724-7.288.273-.08.56.103.632.411.073.31-.092.625-.368.707-4.66 1.372-4.95 6.185-4.953 6.233m14.264.001c-.018-.306-.316-4.87-4.953-6.235-.277-.08-.441-.398-.369-.706.073-.31.36-.49.633-.412 5.379 1.585 5.72 7.232 5.723 7.288"/></g></svg>