<svg width="20" height="20" xmlns="http://www.w3.org/2000/svg"><path d="M6.1 4l-.003.012c.241 0 .457.109.626.31.004.002.578.693.826 1.031.234.32.549.828.708 1.112.284.509.103 1.03-.171 1.245l-.563.449c-.284.228-.25.65-.25.65s.837 3.15 3.94 3.944c0 0 .424.038.651-.245l.45-.569c.211-.284.729-.463 1.237-.18.283.15.791.465 1.11.703.337.238 1.028.823 1.032.823.328.27.402.687.179 1.106v.016a4.714 4.714 0 01-.93 1.138h-.007c-.314.269-.626.418-.94.448-.03 0-.076.015-.135 0-.135 0-.269-.03-.402-.061v-.014c-.478-.135-1.27-.48-2.584-1.212a15.745 15.745 0 01-2.178-1.451 12.328 12.328 0 01-.971-.869l-.076-.028-.03-.03-.029-.028c-.33-.33-.612-.659-.867-.978A16.287 16.287 0 015.291 9.14C4.56 7.823 4.217 7.029 4.082 6.55h-.016a.945.945 0 01-.06-.403c-.014-.06 0-.105 0-.14.03-.299.189-.613.456-.942h.005a4.603 4.603 0 011.14-.93A.991.991 0 016.086 4H6.1zm3.619.336c.027-.473.463-.298.673-.328 2.791.094 5.195 2.655 5.16 5.417-.003.271.094.673-.309.665-.385-.007-.285-.415-.32-.686-.37-2.933-1.71-4.317-4.615-4.765-.24-.037-.607.015-.59-.303zm.444 1.33c.065-.388.434-.257.714-.223 1.793.216 3.257 1.775 3.243 3.488-.028.202.09.55-.236.6-.442.066-.356-.339-.399-.599-.295-1.784-.92-2.438-2.715-2.84-.264-.06-.675-.018-.607-.426zm.878 1.178c.796-.02 1.728.935 1.715 1.762.008.226-.016.464-.283.495-.192.023-.319-.139-.338-.338-.074-.736-.461-1.17-1.198-1.29-.22-.035-.437-.106-.334-.405.069-.2.252-.22.438-.224z" fill="#6A6E72" fill-rule="evenodd"/></svg>