<svg width="20" height="20" xmlns="http://www.w3.org/2000/svg"><path d="M10.736 14.993a.819.819 0 00.458-.223c.14-.145.14-.415.14-.415s-.02-1.268.58-1.454c.59-.185 1.34 1.224 2.14 1.766.61.414 1.07.325 1.07.325l2.14-.029s1.122-.07.592-.939c-.04-.069-.3-.642-1.58-1.817-1.342-1.225-1.162-1.027.45-3.151.98-1.294 1.38-2.084 1.25-2.42-.11-.316-.84-.238-.84-.238l-2.401.02s-.18-.02-.31.06c-.13.078-.21.257-.21.257s-.38 1.007-.89 1.857c-1.082 1.796-1.512 1.895-1.682 1.777-.403-.258-.3-1.04-.3-1.601 0-1.739.27-2.47-.52-2.657-.26-.06-.454-.098-1.124-.109-.86-.01-1.585.007-1.996.205-.27.133-.48.429-.36.444.16.02.52.096.71.354.25.333.24 1.077.24 1.077s.14 2.05-.33 2.306c-.33.172-.77-.185-1.73-1.815-.49-.83-.86-1.757-.86-1.757s-.07-.169-.2-.268C5.02 6.44 4.8 6.4 4.8 6.4l-2.29.02s-.34.01-.459.158c-.11.128-.01.405-.01.405s1.79 4.139 3.82 6.223c1.86 1.91 3.971 1.787 3.971 1.787h.903z" fill="#6A6E72" fill-rule="evenodd"/></svg>